<svg xmlns="http://www.w3.org/2000/svg" version="1.1" xmlns:xlink="http://www.w3.org/1999/xlink" xmlns:svgjs="http://svgjs.dev/svgjs" width="2000" height="1500" viewBox="0 0 2000 1500"><rect width="2000" height="1500" fill="#4db5ff"></rect><g transform="matrix(0.44603033006244425,0,0,0.44603033006244425,552.5801730654266,250)"><svg viewBox="0 0 321 360" data-background-color="#4db5ff" preserveAspectRatio="xMidYMid meet" height="2242" width="2000" xmlns="http://www.w3.org/2000/svg" xmlns:xlink="http://www.w3.org/1999/xlink"><g id="tight-bounds" transform="matrix(1,0,0,1,0.5000020560361236,0)"><svg viewBox="0 0 320 360" height="360" width="320"><g><svg></svg></g><g><svg viewBox="0 0 320 360" height="360" width="320"><g><path transform="translate(-15.58119,4.24857) scale(3.51065,3.51065)" d="M51.5 85.2c-0.4-0.5-0.8-0.2-0.8-0.5-2.4 0.6-6.9-1-8.8-0.8 0.4-0.6-0.6-0.5-0.6-0.9-0.4 0.6-0.8 0-1.4 0.2-0.6-1.5-3-0.4-3.3-2.3-1.4 0-1.9-0.8-3.3-1.6 0.1-0.1 0.2-0.1 0.3-0.2-0.7-0.1-0.7-0.5-1.3-0.5l0.2-0.4c-1.1-0.2-1.5-1.9-3.1-2.5-0.5-0.1-1.6-1.8-2.2-2.2-0.3-0.2-0.8-0.2-0.1-0.3-0.1-0.1-0.1-0.3 0-0.4-0.7-0.2-0.8-0.8-1.7-1.1-0.1-0.3 0.2-0.5 0-0.7-0.2-0.1-0.5 0.1-0.7 0-0.1 1.8 1.9 2 2.5 3.5-0.2-0.2-0.5-0.8-0.7-0.4-0.1 0.3 0.8 1.4 0.8 0.8-0.3 0.2-0.4-0.3-0.2-0.4 0.3 0.5 0.9 0.4 0.9 0.8-0.3 0.3-0.7-0.3-0.6 0.2 0.9 0.5 0.8 1 1.3 1.7-0.4-0.5-0.5 0.4-0.9 0-0.1-1.5-1.8-1.2-1.8-2.7-0.2-0.5-0.4-0.1-0.7-0.3 0.4-0.4-1.2-1.8-1.2-1.3-0.5-0.6-0.2-0.8-0.3-1.2-0.4-0.1-0.1 0.4-0.4 0.1 0.4-0.7-0.5-1.6-1.1-2.3l0.4-0.2c-0.7-0.4-0.8-1.2-1.3-2.1-0.6 0.9 1.2 2.9 0.9 3.3 0 0.1 0.7 0.9 0.9 1.3 0.8 1.4 1.4 3.1 2.5 3.9-0.2-0.1-0.1-0.7 0.2-0.4 0 0.3-0.2 0.6-0.2 0.9 0.6 0.6 1.1 1.1 1.7 1.7-1.3-0.8-2.6-1.6-3.5-2.8 0.5-0.1 1 0.8 1.4 0.7-1-0.8-0.7-1.1-1.1-2.1-0.4-0.3 0.1 0.4-0.3 0.5-1.3-1.2-2.3-1.9-2.9-3 0.1-0.1 0.2-0.2 0.2-0.4-0.1-0.1-0.1-0.1-0.2-0.2 0.6 0.6 0.8 1.1 1.5 1.2-0.3-0.3 0-0.4-0.4-0.7-0.2-0.4-0.5 0.2-0.7-0.1 0.2-0.3 0-0.7 0-1-0.2 0-0.4 0-0.5-0.3-0.2-0.1-0.3 0-0.4 0.2-0.1-0.1-0.1-0.3-0.2-0.4v-0.1c-0.1-0.1-0.2-0.3-0.3-0.4-0.8-2.1-1.3-4.9-2.4-6.7 0.3-1.2-0.2-3.6-0.5-4.2 0.3-0.5 0.1-2.8-0.1-3.2-0.5 0.2 0.1 1.3-0.4 1.6-0.5-2.2 0.3-4.7 0.1-6.7 0.2 0 0.4 0 0.4-0.1-0.3-0.3 0.2-0.9 0.1-1.6 0.4-0.9-0.9 1.3-0.9 2.2-0.1 0.2-0.5 0-0.4 0.5 0 0.7 0.2 2.1-0.2 3.1-0.2 0-0.2-0.2-0.4-0.1-0.1 0.5-0.2 1.1-0.3 1.6-0.1-0.2-0.2-0.5-0.2-0.6-0.5-2.5 0-5.4-0.2-7.5 0.4 0 0.4-0.6 0.7-0.8-0.1 0.8-0.3 1.8 0.2 2 0.4-3.9 1.2-8.2 3-12.4 1.3-3.1 3.2-6.2 5.5-8.7 0.2 0.3-0.1 1 0 1.3 2-2.1 3.3-4.6 5.5-6 0.1 0.5-0.9 0.9-0.9 1.3 0.9-0.9 1.2-0.6 2.2-0.9 0.3-0.4-0.4 0-0.5-0.4 0.6-0.4 1-0.9 1.4-1.2 0 0.1-0.1 0.1-0.1 0.2 1.1-0.3 1.2-0.9 2-1.1-0.1-0.1-0.3-0.2-0.6-0.1 0.2-0.1 0.5-0.3 0.8-0.4-0.1 0-0.1 0.1-0.2 0.1 0.6-0.3 0.1 0.1 0.1 0.3 0.1 0 0.2-0.1 0.2-0.1-0.6 0.4-1 0.6-1.2 1.3 0.3-0.2 0.4 0 0.8-0.3 0.4-0.2-0.1-0.5 0.2-0.7 0.3 0.2 0.7 0.1 1 0.1 0-0.2 0.1-0.4 0.3-0.5 0.1-0.2 0-0.3-0.1-0.3 0.1-0.1 0.2-0.1 0.4-0.2 0 0 0.1 0 0.1 0.1 1.7-0.8 3.6-1.5 5.4-2.1 1.1-0.1 2.5-0.1 3.1-0.8-0.2 0-0.4 0.1-0.5 0 0.1 0 0.3-0.1 0.4-0.1 0.2 0.2 0.5 0 0.2 0.4 0.1 0 0.1 0 0.2-0.1 0 0.1 0 0.1 0.1 0.2 0.1 0 0.2-0.1 0.3-0.3 0.1 0 0.2 0 0.3-0.1l-0.1 0.1c0.8-0.2 1.5-0.1 2.6-0.3 0-0.1 0-0.2 0-0.3 0.2 0 0.3-0.1 0.5-0.1v0.1c0.4-0.2 0.8 0.2 0.8 0 0.1 0 0.1 0 0.2 0 0 0.2-0.1 0.3-0.1 0.4 0.5 0 0.8 0 1-0.3-0.1-0.1-0.2-0.1-0.3-0.1 0.2 0 0.4-0.1 0.6-0.2 0.3 0.1 0.4 0.2 0.4 0.6 0.5-0.9 2.1 0.2 2.8 0 0.3 0 0.2-0.4 0.4-0.6 0.1 0 0.2 0 0.3 0 0.5 0.4 1.2 0.8 2.1 0.9-0.8-0.2 0.1-0.3 0.2-0.4-0.2 0-0.2-0.1-0.2-0.2 0.3 0 0.6 0.1 0.9 0.1 0 0.2 0.1 0.3 0.3 0.3 0.2 0 0.2-0.1 0.2-0.3 0.3 0 0.5 0 0.8 0.1-0.1 0.4 0.5 0.5 0.7 0.8-0.8-0.2-1.7-0.5-2 0 3.2 0.7 6.7 1.7 10.1 3.4 0 0 0 0 0 0.1h0.1c0.6 0.3 1.2 0.6 1.8 0.9 0.4 0.2 0.7 0.4 1.1 0.7 0 0.1 0 0.2 0.2 0.2h0.1c0.4 0.3 0.8 0.5 1.2 0.8 0.4 0.6 0.8 1.4 1.5 1.2 1.5 2.3 3.1 3.2 4.4 5.6 0.1-0.4 0.4 0.9 0.9 1-0.8-0.1 0.5 0.5-0.3 0.4 0.7 0.7 0.9 1 1 1.8-0.2-0.4-0.3-0.5-0.4-0.1-0.1 0.6 0.7-0.1 1 0.5-0.6 0-0.4 0.4-0.3 0.9 0.3-0.3 0.2-0.6 0.5-0.5 0.4 0.4-0.2 0.5-0.1 0.8 0.3-0.4 0.4-0.2 0.8 0-0.5 0.1 0.3 0.8-0.3 0.5 0.4 0.5 0.5 0.8 0.3 1.3-0.4-0.6-0.1-1-0.7-0.9 1.2 1 0.6 3.3 2 3.5-0.9 0.2 0 0.6-0.5 0.7 0.6 0.2 0.3 1 1 1.2-0.1 0.5-0.3 0.8-0.4 1.3 0.3 0.4 0.4 1.2 0.9 1.3-0.3 0.3-0.1 1.1-0.4 1.4 0.4-0.2 0.6-0.2 0.9 0.2-0.5 0.4-0.1 0.8-0.4 0.9 0.9 2.3-0.2 7 0.3 8.8-0.6-0.3-0.4 0.7-0.8 0.7 0.7 0.3 0.1 0.8 0.4 1.3-1.4 0.8 0 3-1.9 3.5 0.2 1.4-0.6 2-1.2 3.5-0.1-0.1-0.1-0.2-0.2-0.3-0.1 0.7-0.5 0.8-0.3 1.4l-0.4-0.2c0 1.1-1.7 1.7-2.1 3.4-0.1 0.5-1.6 1.8-2 2.5-0.2 0.3-0.1 0.8-0.3 0.1-0.1 0.1-0.3 0.1-0.4 0.1-0.1 0.7-0.7 0.9-0.9 1.8-0.2 0.1-0.5-0.2-0.7 0.1 0 0.2 0.2 0.5 0.1 0.7 1.8-0.1 1.8-2.2 3.2-2.9-0.1 0.3-0.7 0.6-0.3 0.8 0.3 0 1.2-1 0.7-0.9 0.3 0.2-0.3 0.4-0.4 0.3 0.5-0.4 0.3-0.9 0.7-1 0.3 0.2-0.3 0.7 0.3 0.6 0.4-0.9 0.9-1 1.5-1.5-0.4 0.4 0.5 0.5 0.1 0.9-1.5 0.3-1 2-2.5 2.2-0.4 0.3-0.1 0.4-0.2 0.7-0.5-0.3-1.6 1.4-1.2 1.3-0.5 0.5-0.8 0.3-1.2 0.4-0.1 0.4 0.4 0.1 0.2 0.4-0.7-0.3-1.6 0.7-2.2 1.4l-0.3-0.3c-0.3 0.8-1.1 0.9-2 1.5 1 0.5 2.7-1.6 3.2-1.3 0.1 0 0.9-0.8 1.2-1.1 1.3-1 2.9-1.8 3.5-2.9-0.1 0.2-0.7 0.2-0.4-0.1 0.3-0.1 0.6 0.1 0.9 0.1 1.6-2.2 3.6-4 5.1-6.6 0.1-0.1 0.2-0.3 0.3-0.5-0.2 0.6-0.5 1.1-0.7 1.7-1.6 1.1-2.2 4.3-4.1 4.8 0.1 1.1-0.9 1.4-1.4 2.7-0.3 0.4-0.5-0.3-0.8 0.2 0.3 1.4-2.5 1.3-2.4 2.6-0.2 0.1-0.5 0.2-0.7 0.4h-0.1c-0.1 0.1-0.1 0.1-0.2 0.2-0.5 0.3-0.9 0.6-1.3 0.9-1.4 0.8-3.3 1.4-4.8 2.2v-0.1c-0.4 0.2-0.9 0.1-0.8 0.5-0.3 0.2-0.6 0.4-0.9 0.6-0.1 0-0.1 0-0.2 0 0 0-0.1-0.1-0.2-0.1-0.2 0-0.2 0-0.3 0.1-1.3 0.1-3 0.7-3.5 1.1-0.5-0.3-2.8 0.2-3.2 0.4 0.2 0.3 0.8 0 1.3 0-0.3 0.1-0.6 0.2-0.7 0.4-0.1 0-0.1 0-0.2 0-0.1-0.3-0.4 0-0.5-0.1h0.1c-0.1-0.4-0.4-0.6-0.9-0.5 0 0.2 0 0.3-0.1 0.5 0.2 0 0.8-0.3 0.8 0-0.1 0-0.1 0.1 0 0.1-0.2 0.2-0.5 0.2-0.7 0.3-0.4 0-0.9 0-1.3 0-0.1-0.1-0.2-0.1-0.4-0.2-0.1 0.1-0.3 0.1-0.4 0.2-0.6 0-1.3 0.1-1.8 0.2 0-0.2 0-0.4-0.2-0.4-0.3 0.4-0.9-0.1-1.6 0.1-0.7-0.2 0.4 0.3 1.4 0.5-0.1 0.1-0.2 0.2-0.5 0.3M37.5 86.6c-1.4-1.3-4.3-1.9-4.8-2.9-0.8-0.1-2-1.6-3-1.8 0.5 0 0.1-0.3 0-0.5-0.2 0.2-0.4 0.3-0.6 0.3 0-0.8-0.8-1.3-1.5-1.8 0.5 0.3 0.9 0.5 1.5 0.6 0-0.2 0-0.4 0.2-0.4 0.7 0.7 1.5 1.4 2.4 2.1 1.2 1.1 7.4 3.9 8.5 4.4 0 0-0.2 0.4-0.1 0.4 0.5 0.3 0.9-0.3 1 0.4-1.6 0.2-2.2-0.9-3.6-0.8M83.6 63.4v0.1 0c-0.1 0 0-0.1 0-0.1M43.2 17.1c-0.1 0.1-0.2 0.1-0.2 0.1 0-0.1 0.1-0.1 0.2-0.1M41.3 17.6c0 0.1 0 0.1 0 0 0 0.1 0 0.1 0 0 0 0.1 0 0 0 0M34.7 19.7v0c0.1-0.1 0.1-0.1 0.2-0.1-0.1 0-0.2 0.1-0.2 0.1M50.7 16.4c-0.2 0-0.3 0-0.4-0.1 0.1 0 0.2 0 0.3 0h0.1c0 0 0 0 0 0.1M52.5 16.6c-0.1-0.1-0.4-0.2-0.7-0.2 0-0.1 0.1-0.2 0.1-0.2 0.1 0 0.2 0 0.3 0 0 0 0.1 0 0.1 0.1 0 0 0 0 0-0.1 0.1 0 0.1 0 0.2 0 0.1 0.2 0.2 0.3 0 0.4M55.8 16.9c-0.5 0.1-0.8-0.1-1.3-0.4 0.3 0 0.7 0.1 1 0.2 0.1 0 0.2 0.1 0.3 0.2M91.4 31.1c-0.2 0.1-0.3 0.1-0.5-0.3-1.6-3.4-4.5-8.3-8.7-12.4-4.1-4.2-9.6-7.6-14.6-9.4 0.3 0.1 0.7 0.3 0.5 0.5-4.4-1.7-8.6-2.7-12.6-3.1-10.8-1.7-22.1 0.6-30.8 6.2 0.1 0.2 0.1 0.3-0.2 0.5-3.2 2-7.7 5.5-11.3 10.1-3.6 4.6-6.4 10.4-7.6 15.6 0.1-0.3 0.2-0.8 0.4-0.6-2.6 10.3-1.9 19.1 1.7 26.7 0.2-0.2-0.5-1.2 0.1-1.1 0.4 1.1 0.9 2.3 1.5 3.4 0.7 1.6 1.5 3.7 2.6 4.2-2.8-5.5-4.7-11.8-4.9-17.4 0.4 0.8 0.3 2.5 0.9 3.2 0.2-3.8-0.7-8.9 0.6-12.5-0.3 1.9-0.5 4.5-0.3 7.1 0 1.9 0.9 7.2 1.5 7.7-0.1-0.1-0.1-0.6 0-0.6 0.3 0.6-0.4 0.9 0.1 1 0-0.2 0.1-0.2 0.2-0.2 1 2.2 2.3 5.6 3.3 7.3 1.2 2.2 2.8 4.2 4.6 6 0 0.1 0.1 0.1 0.1 0.2 0.2 0.5 0.9 1.1 1.1 1.5 0.1 0.2-0.1 0.5 0 0.7 1.5 2.8 3.7 5.6 6.4 7.8 1.7 2 4.4 4.1 7.7 5.9 3.2 1.7 6.9 3.1 10.3 3.9 2.4 0.6 5.3 0.7 7.1 1.1 2.4 0.5 6.6-0.2 8.7-0.6 12.6-1.9 25.1-10.5 31.4-22.9 6.5-12.5 6.3-27.8 0.7-39.5" fill="#ffffff" fill-rule="nonzero" stroke="none" stroke-width="1" stroke-linecap="butt" stroke-linejoin="miter" stroke-miterlimit="10" stroke-dasharray="" stroke-dashoffset="0" font-family="none" font-weight="none" font-size="none" text-anchor="none" style="mix-blend-mode: normal" data-fill-palette-color="tertiary"></path></g><g transform="matrix(1,0,0,1,80,152.31750198742932)"><svg viewBox="0 0 160 55.364996025141345" height="55.364996025141345" width="160"><g><svg viewBox="0 0 267.7725348425893 92.65765829501237" height="55.364996025141345" width="160"><g transform="matrix(1,0,0,1,107.77253484258931,33.523735408560306)"><svg viewBox="0 0 160 25.610187477891756" height="25.610187477891756" width="160"><g id="textblocktransform"><svg viewBox="0 0 160 25.610187477891756" height="25.610187477891756" width="160" id="textblock"><g><svg viewBox="0 0 160 25.610187477891756" height="25.610187477891756" width="160"><g transform="matrix(1,0,0,1,0,0)"><svg width="160" viewBox="2.8 -35.25 282.68 45.25" height="25.610187477891756" data-palette-color="#ffffff"><path d="M17.35-9.15L17.35-35 21.35-35 21.35-9.15Q21.35-6.4 20.15-4.25 18.95-2.1 16.82-0.88 14.7 0.35 11.85 0.35L11.85 0.35Q8.25 0.35 5.95-1.48 3.65-3.3 2.8-6.5L2.8-6.5 6.25-7.75Q6.6-6.45 7.28-5.4 7.95-4.35 9.08-3.75 10.2-3.15 11.85-3.15L11.85-3.15Q13.8-3.15 15-4.05 16.2-4.95 16.78-6.33 17.35-7.7 17.35-9.15L17.35-9.15ZM30 0L30-25 33.7-25 33.7 0 30 0ZM31.9-30L31.9-30Q30.75-30 30-30.75 29.25-31.5 29.25-32.6L29.25-32.6Q29.25-33.75 30-34.5 30.75-35.25 31.9-35.25L31.9-35.25Q32.95-35.25 33.72-34.5 34.5-33.75 34.5-32.6L34.5-32.6Q34.5-31.5 33.72-30.75 32.95-30 31.9-30ZM42.15 0L42.15-25 45.59-25 45.84-21.4Q46.95-23.2 48.82-24.28 50.7-25.35 53.3-25.35L53.3-25.35Q55.95-25.35 58.12-24.08 60.3-22.8 61.5-20.3L61.5-20.3Q62.65-22.85 65-24.1 67.34-25.35 70.2-25.35L70.2-25.35Q73-25.35 75.15-24.13 77.3-22.9 78.5-20.48 79.7-18.05 79.7-14.4L79.7-14.4 79.7 0 75.94 0 75.94-13.95Q75.94-17.85 74.27-19.88 72.59-21.9 69.5-21.9L69.5-21.9Q66.34-21.9 64.5-19.73 62.65-17.55 62.65-13.3L62.65-13.3 62.65 0 58.9 0 58.9-13.95Q58.9-17.85 57.3-19.88 55.7-21.9 52.59-21.9L52.59-21.9Q49.45-21.9 47.67-19.73 45.9-17.55 45.9-13.3L45.9-13.3 45.9 0 42.15 0ZM95.54-4.8L103.29-25 107.19-25 92.89 10 89.29 10 93.54-0.35 83.44-25 87.54-25 95.54-4.8ZM146.59-24.65L146.59-24.65Q146.59-27.8 144.74-29.65 142.89-31.5 138.69-31.5L138.69-31.5 130.39-31.5 130.39-17.8 138.74-17.8Q141.49-17.8 143.21-18.65 144.94-19.5 145.76-21.05 146.59-22.6 146.59-24.65ZM126.39-35L138.69-35Q142.79-35 145.41-33.6 148.04-32.2 149.34-29.88 150.64-27.55 150.64-24.65L150.64-24.65Q150.64-22.6 149.96-20.75 149.29-18.9 147.84-17.45 146.39-16 144.14-15.15 141.89-14.3 138.74-14.3L138.74-14.3 130.39-14.3 130.39 0 126.39 0 126.39-35ZM137.29-15.8L141.59-15.8 151.29 0 146.74 0 137.29-15.8ZM168.04 0.35L168.04 0.35Q164.49 0.35 161.69-1.2 158.89-2.75 157.29-5.63 155.69-8.5 155.69-12.45L155.69-12.45Q155.69-16.45 157.31-19.35 158.94-22.25 161.76-23.8 164.59-25.35 168.14-25.35L168.14-25.35Q171.69-25.35 174.51-23.8 177.34-22.25 178.96-19.38 180.59-16.5 180.59-12.55L180.59-12.55Q180.59-8.55 178.94-5.65 177.29-2.75 174.44-1.2 171.59 0.35 168.04 0.35ZM167.99-3.2L167.99-3.2Q170.19-3.2 172.14-4.17 174.09-5.15 175.31-7.23 176.54-9.3 176.54-12.5L176.54-12.5Q176.54-15.75 175.34-17.8 174.14-19.85 172.21-20.83 170.29-21.8 168.09-21.8L168.09-21.8Q165.89-21.8 163.99-20.83 162.09-19.85 160.91-17.78 159.74-15.7 159.74-12.5L159.74-12.5Q159.74-9.25 160.89-7.2 162.04-5.15 163.91-4.17 165.79-3.2 167.99-3.2ZM204.13-25L204.13-21.75 190.08-3.5 204.28-3.5 204.28 0 185.38 0 185.38-3.25 199.43-21.5 185.53-21.5 185.53-25 204.13-25ZM229.78 0L226.33 0 226.03-4.5Q224.98-2.2 222.93-0.93 220.88 0.35 217.73 0.35L217.73 0.35Q215.03 0.35 213.13-0.5 211.23-1.35 210.21-2.93 209.18-4.5 209.18-6.65L209.18-6.65Q209.18-9.8 211.53-11.83 213.88-13.85 218.33-14.3L218.33-14.3 226.03-15.15 226.03-17.15Q226.03-19.25 224.48-20.53 222.93-21.8 220.28-21.8L220.28-21.8Q217.68-21.8 215.96-20.6 214.23-19.4 213.58-17.15L213.58-17.15 210.18-18.35Q211.18-21.65 213.86-23.5 216.53-25.35 220.38-25.35L220.38-25.35Q224.83-25.35 227.31-23.08 229.78-20.8 229.78-16.9L229.78-16.9 229.78 0ZM226.03-11.15L226.03-11.95 218.28-11.05Q215.78-10.75 214.48-9.68 213.18-8.6 213.18-6.85L213.18-6.85Q213.18-5.1 214.46-4.05 215.73-3 218.13-3L218.13-3Q220.88-3 222.63-4.1 224.38-5.2 225.21-7.08 226.03-8.95 226.03-11.15L226.03-11.15ZM237.08 0L237.08-25 240.53-25 240.73-21.45Q241.93-23.3 243.88-24.33 245.83-25.35 248.43-25.35L248.43-25.35Q251.28-25.35 253.43-24.13 255.58-22.9 256.78-20.48 257.98-18.05 257.98-14.4L257.98-14.4 257.98 0 254.23 0 254.23-13.95Q254.23-17.85 252.55-19.88 250.88-21.9 247.73-21.9L247.73-21.9Q244.48-21.9 242.65-19.75 240.83-17.6 240.83-13.4L240.83-13.4 240.83 0 237.08 0ZM273.83-4.8L281.58-25 285.48-25 271.18 10 267.58 10 271.83-0.35 261.73-25 265.83-25 273.83-4.8Z" opacity="1" transform="matrix(1,0,0,1,0,0)" fill="#ffffff" class="wordmark-text-0" data-fill-palette-color="primary" id="text-0"></path></svg></g></svg></g></svg></g></svg></g><g><svg viewBox="0 0 92.65765829501237 92.65765829501237" height="92.65765829501237" width="92.65765829501237"><g><svg viewBox="0 0 92.65765829501237 92.65765829501237" height="92.65765829501237" width="92.65765829501237"><g transform="matrix(1,0,0,1,24.48920964441645,26.857815650524277)"><svg viewBox="0 0 43.679239006179465 38.942026993963815" height="38.942026993963815" width="43.679239006179465"><g><svg xmlns="http://www.w3.org/2000/svg" xmlns:xlink="http://www.w3.org/1999/xlink" version="1.0" x="0" y="0" viewBox="23 27 55 49.035" enable-background="new 0 0 100 100" xml:space="preserve" height="38.942026993963815" width="43.679239006179465" class="icon-dxe-0" data-fill-palette-color="accent" id="dxe-0"><g fill="#ffffff" data-fill-palette-color="accent"><g fill="#ffffff" data-fill-palette-color="accent"><path d="M77 27H24A1 1 0 0 0 23 28V65A1 1 0 0 0 24 66H49V74.035H34.892A1 1 0 0 0 34.892 76.035H65.108A1 1 0 0 0 65.108 74.035H51V66H77A1 1 0 0 0 78 65V28A1 1 0 0 0 77 27M76 29V33H25V29zM25 64V35H76V64z" fill="#ffffff" data-fill-palette-color="accent"></path><circle cx="28" cy="31" r="1.0" fill="#ffffff" data-fill-palette-color="accent"></circle><path d="M65.121 48.21L66.591 45.666 64.857 44.666 63.336 47.3H59.333L57.863 44.757 56.131 45.757 57.652 48.392 55.65 51.86H52.712V53.86H55.755L57.757 57.328 56.29 59.873 58.02 60.873 59.542 58.237H63.546L65.016 60.782 66.748 59.782 65.227 57.146 67.229 53.678H70.167V51.678H67.124zM63.441 56.237H59.438L57.435 52.769 59.437 49.301H63.442L65.444 52.77z" fill="#ffffff" data-fill-palette-color="accent"></path><circle cx="61.4394531" cy="52.769043" r="1.1" fill="#ffffff" data-fill-palette-color="accent"></circle><circle cx="42.2539063" cy="48.8530273" r="1.5" fill="#ffffff" data-fill-palette-color="accent"></circle><path d="M54.42 49.853V47.853H51.43L47.708 41.407 49.204 38.817 47.47 37.816 45.976 40.406H38.533L37.037 37.817 35.305 38.816 36.8 41.406 33.078 47.853H30.088V49.853H33.077L36.8 56.299 35.305 58.89 37.037 59.89 38.533 57.3H45.976L47.47 59.89 49.204 58.89 47.708 56.3 51.43 49.853zM45.976 55.299H38.532L34.811 48.853 38.532 42.407H45.976L49.697 48.853z" fill="#ffffff" data-fill-palette-color="accent"></path></g></g></svg></g></svg></g><g id="text-0"><path d="M7.021 33.006l-5.201-1.636 0.254-0.809 5.202 1.637c0.368 0.116 0.672 0.299 0.914 0.549 0.24 0.257 0.394 0.552 0.463 0.888 0.075 0.337 0.053 0.696-0.067 1.076v0c-0.152 0.482-0.397 0.84-0.736 1.075-0.345 0.233-0.751 0.338-1.218 0.317v0l-0.029-0.772c0.187 0.003 0.368-0.017 0.542-0.06 0.167-0.045 0.316-0.13 0.446-0.257 0.124-0.128 0.221-0.303 0.291-0.525v0c0.082-0.26 0.088-0.491 0.02-0.694-0.071-0.196-0.186-0.362-0.346-0.495-0.16-0.134-0.338-0.232-0.535-0.294z" fill="#ffffff" data-fill-palette-color="accent"></path><path d="M11.901 27.084l-4.584-2.608 0.39-0.684 4.583 2.608zM6.601 23.598v0c-0.082 0.144-0.196 0.237-0.341 0.276-0.142 0.034-0.279 0.013-0.411-0.062v0c-0.144-0.082-0.238-0.193-0.282-0.332-0.04-0.145-0.019-0.29 0.064-0.434v0c0.072-0.127 0.181-0.211 0.326-0.25 0.148-0.046 0.295-0.027 0.439 0.054v0c0.133 0.076 0.218 0.189 0.254 0.34 0.04 0.145 0.024 0.281-0.049 0.408z" fill="#ffffff" data-fill-palette-color="accent"></path><path d="M15.952 21.45l-3.745-3.713 0.513-0.517 0.573 0.499c-0.072-0.286-0.068-0.578 0.01-0.875 0.079-0.296 0.247-0.574 0.504-0.834v0c0.262-0.264 0.564-0.442 0.907-0.532 0.343-0.091 0.698-0.071 1.065 0.059v0c-0.138-0.371-0.153-0.732-0.047-1.086 0.107-0.362 0.303-0.687 0.588-0.975v0c0.276-0.278 0.581-0.463 0.914-0.554 0.338-0.095 0.686-0.083 1.043 0.038 0.367 0.121 0.732 0.361 1.096 0.722v0l2.159 2.141-0.561 0.566-2.089-2.071c-0.392-0.388-0.771-0.601-1.137-0.636-0.371-0.031-0.709 0.106-1.014 0.413v0c-0.314 0.316-0.453 0.674-0.418 1.073 0.035 0.399 0.264 0.81 0.689 1.231v0l1.996 1.979-0.561 0.566-2.089-2.07c-0.392-0.388-0.769-0.603-1.13-0.644-0.357-0.045-0.69 0.088-0.999 0.399v0c-0.314 0.316-0.448 0.669-0.405 1.059 0.039 0.395 0.271 0.802 0.696 1.224v0l1.997 1.979z" fill="#ffffff" data-fill-palette-color="accent"></path><path d="M27.538 10.943l-0.529-4.533 0.723-0.381 0.771 7.943-0.671 0.354-0.223-2.35-4.313-3.61 0.767-0.404z" fill="#ffffff" data-fill-palette-color="accent"></path><path d="M46.802 2.11v0c-0.02-0.445-0.166-0.791-0.437-1.038-0.277-0.247-0.708-0.357-1.292-0.33v0l-1.753 0.08 0.133 2.888 1.762-0.08c0.385-0.018 0.694-0.092 0.928-0.223 0.24-0.131 0.412-0.308 0.515-0.532 0.109-0.225 0.158-0.48 0.144-0.765zM42.44 0.124l2.599-0.119c0.571-0.026 1.047 0.048 1.427 0.224 0.381 0.182 0.668 0.432 0.863 0.749 0.201 0.323 0.311 0.688 0.33 1.092v0c0.013 0.285-0.024 0.563-0.112 0.834-0.081 0.263-0.22 0.499-0.417 0.708-0.19 0.215-0.441 0.389-0.754 0.523-0.313 0.134-0.689 0.211-1.127 0.231v0l-1.763 0.081 0.139 3.018-0.847 0.039zM44.926 4.062l0.906-0.042 2.194 3.243-0.956 0.044z" fill="#ffffff" data-fill-palette-color="accent"></path><path d="M55.79 8.593v0c-0.485-0.113-0.895-0.318-1.228-0.614-0.339-0.304-0.569-0.678-0.691-1.123-0.128-0.446-0.129-0.941-0.002-1.485v0c0.127-0.544 0.347-0.991 0.66-1.34 0.319-0.342 0.694-0.575 1.125-0.7 0.438-0.123 0.9-0.128 1.386-0.016v0c0.492 0.115 0.904 0.323 1.236 0.626 0.339 0.304 0.575 0.68 0.71 1.128 0.128 0.446 0.13 0.938 0.004 1.475v0c-0.128 0.55-0.351 0.996-0.67 1.338-0.32 0.349-0.699 0.584-1.137 0.708-0.443 0.115-0.907 0.116-1.393 0.003zM55.95 7.862v0c0.304 0.071 0.604 0.072 0.9 0.005 0.297-0.074 0.563-0.234 0.797-0.48 0.235-0.246 0.403-0.588 0.506-1.028v0c0.104-0.447 0.108-0.828 0.01-1.144-0.103-0.318-0.269-0.574-0.496-0.771-0.234-0.198-0.503-0.332-0.807-0.403v0c-0.298-0.069-0.595-0.067-0.892 0.008-0.291 0.076-0.55 0.237-0.778 0.484-0.227 0.241-0.391 0.581-0.494 1.021v0c-0.104 0.447-0.108 0.831-0.012 1.154 0.091 0.315 0.249 0.57 0.476 0.766 0.229 0.19 0.492 0.319 0.79 0.388z" fill="#ffffff" data-fill-palette-color="accent"></path><path d="M69.359 8.322l-0.313 0.601-4.417 2.049 2.661 1.387-0.34 0.654-3.537-1.842 0.318-0.61 4.412-2.041-2.608-1.358 0.341-0.654z" fill="#ffffff" data-fill-palette-color="accent"></path><path d="M74.658 19.075l-0.546-0.481 0.582-0.75c-0.326 0.138-0.655 0.18-0.988 0.125-0.333-0.054-0.666-0.229-1-0.523v0c-0.284-0.251-0.489-0.511-0.614-0.781-0.12-0.266-0.163-0.529-0.128-0.79 0.04-0.257 0.162-0.5 0.364-0.729v0c0.295-0.334 0.659-0.496 1.093-0.485 0.433 0.001 0.909 0.186 1.426 0.553v0l1.337 0.94 0.277-0.314c0.198-0.224 0.274-0.476 0.228-0.756-0.046-0.28-0.208-0.543-0.487-0.788v0c-0.274-0.242-0.561-0.379-0.859-0.413-0.289-0.034-0.574 0.038-0.856 0.216v0l-0.366-0.669c0.412-0.257 0.846-0.357 1.301-0.3 0.451 0.052 0.88 0.258 1.289 0.618v0c0.469 0.413 0.729 0.856 0.783 1.328 0.048 0.468-0.11 0.909-0.475 1.323v0zM75.624 16.79l0.112-0.127-1.359-0.946c-0.286-0.199-0.549-0.302-0.789-0.311-0.241-0.008-0.442 0.08-0.605 0.264v0c-0.163 0.184-0.225 0.391-0.188 0.619 0.038 0.228 0.184 0.455 0.439 0.679v0c0.294 0.259 0.584 0.413 0.869 0.461 0.286 0.048 0.559 0.01 0.819-0.115 0.266-0.12 0.499-0.295 0.702-0.524z" fill="#ffffff" data-fill-palette-color="accent"></path><path d="M78.47 23.649l4.363-2.963 0.409 0.603-0.596 0.453c0.308-0.008 0.601 0.062 0.878 0.21 0.274 0.143 0.514 0.366 0.719 0.669v0c0.224 0.33 0.35 0.67 0.379 1.02 0.025 0.344-0.054 0.683-0.237 1.017-0.193 0.332-0.501 0.641-0.924 0.928v0l-2.515 1.708-0.443-0.651 2.433-1.652c0.456-0.31 0.736-0.644 0.838-1.003 0.106-0.353 0.034-0.714-0.217-1.082v0c-0.258-0.379-0.584-0.588-0.979-0.625-0.393-0.046-0.834 0.097-1.323 0.429v0l-2.342 1.591z" fill="#ffffff" data-fill-palette-color="accent"></path><path d="M84.962 34.048l4.561 0.162 0.267 0.773-7.969-0.439-0.247-0.716 2.356 0.134 4.22-3.718 0.284 0.82z" fill="#ffffff" data-fill-palette-color="accent"></path><path d="M5.676 62.075l5.249-1.653 0.258 0.817-5.249 1.654c-0.368 0.116-0.723 0.137-1.067 0.064-0.344-0.073-0.643-0.226-0.897-0.459-0.255-0.233-0.443-0.543-0.565-0.93v0c-0.154-0.488-0.159-0.925-0.016-1.312 0.149-0.388 0.425-0.709 0.826-0.961v0l0.466 0.617c-0.155 0.105-0.292 0.224-0.409 0.359-0.11 0.139-0.181 0.298-0.216 0.475-0.034 0.178-0.017 0.378 0.053 0.6v0c0.084 0.266 0.211 0.46 0.381 0.58 0.179 0.125 0.372 0.196 0.58 0.215 0.208 0.018 0.41-0.004 0.606-0.066z" fill="#ffffff" data-fill-palette-color="accent"></path><path d="M7.298 70.167l4.627-2.633 0.389 0.685-4.627 2.632zM13.045 67.367v0c-0.082-0.144-0.103-0.289-0.063-0.435 0.04-0.145 0.129-0.257 0.267-0.335v0c0.139-0.079 0.28-0.098 0.426-0.059 0.145 0.04 0.259 0.132 0.341 0.276v0c0.072 0.127 0.09 0.266 0.053 0.417-0.04 0.145-0.129 0.257-0.267 0.336v0c-0.139 0.079-0.28 0.098-0.426 0.059-0.148-0.046-0.259-0.132-0.331-0.259z" fill="#ffffff" data-fill-palette-color="accent"></path><path d="M12.17 76.883l3.78-3.749 0.519 0.524-0.51 0.576c0.292-0.065 0.585-0.056 0.881 0.025 0.296 0.081 0.572 0.251 0.83 0.511v0c0.267 0.269 0.444 0.575 0.532 0.919 0.093 0.348 0.07 0.708-0.068 1.078v0c0.377-0.139 0.743-0.152 1.1-0.038 0.361 0.11 0.685 0.308 0.97 0.596v0c0.281 0.283 0.465 0.592 0.553 0.926 0.093 0.339 0.077 0.691-0.047 1.057-0.124 0.366-0.37 0.732-0.737 1.097v0l-2.174 2.155-0.561-0.566 2.109-2.092c0.392-0.388 0.605-0.768 0.639-1.14 0.034-0.371-0.103-0.712-0.411-1.023v0c-0.314-0.316-0.672-0.461-1.077-0.435-0.4 0.031-0.814 0.26-1.243 0.686v0l-2.011 1.993-0.561-0.566 2.109-2.092c0.392-0.388 0.609-0.763 0.653-1.125 0.039-0.366-0.096-0.705-0.404-1.017v0c-0.314-0.316-0.668-0.456-1.063-0.42-0.395 0.036-0.807 0.267-1.237 0.693v0l-2.01 1.993z" fill="#ffffff" data-fill-palette-color="accent"></path><path d="M26.038 86.583l3.462-3.045 0.732 0.386-6.159 5.173-0.68-0.358 1.825-1.518 0.541-5.652 0.777 0.409z" fill="#ffffff" data-fill-palette-color="accent"></path><path d="M47.043 87.374v0c0.021-0.445-0.096-0.806-0.349-1.084-0.247-0.271-0.669-0.42-1.266-0.448v0l-1.763-0.082-0.134 2.908 1.772 0.082c0.392 0.018 0.713-0.027 0.964-0.135 0.251-0.108 0.438-0.269 0.562-0.483 0.13-0.214 0.201-0.466 0.214-0.758zM42.853 84.974l2.609 0.121c0.584 0.027 1.058 0.149 1.42 0.365 0.363 0.216 0.629 0.491 0.801 0.825 0.164 0.34 0.236 0.716 0.217 1.128v0c-0.013 0.292-0.073 0.565-0.178 0.82-0.112 0.261-0.272 0.49-0.481 0.687-0.215 0.196-0.485 0.347-0.809 0.451-0.324 0.105-0.712 0.147-1.163 0.126v0l-1.773-0.082-0.14 3.037-0.847-0.039zM44.975 89.164l0.916 0.042 1.906 3.452-0.966-0.045z" fill="#ffffff" data-fill-palette-color="accent"></path><path d="M57.022 91.329v0c-0.492 0.114-0.957 0.11-1.395-0.013-0.438-0.123-0.813-0.357-1.125-0.7-0.312-0.344-0.532-0.791-0.661-1.341v0c-0.128-0.55-0.125-1.052 0.008-1.506 0.127-0.453 0.363-0.832 0.708-1.137 0.339-0.304 0.754-0.513 1.246-0.628v0c0.492-0.114 0.957-0.11 1.395 0.013 0.438 0.123 0.816 0.356 1.135 0.698 0.32 0.349 0.543 0.795 0.669 1.339v0c0.13 0.557 0.124 1.06-0.017 1.508-0.133 0.454-0.372 0.834-0.717 1.14-0.345 0.305-0.76 0.515-1.246 0.627zM56.842 90.604v0c0.304-0.071 0.573-0.205 0.807-0.403 0.24-0.199 0.411-0.461 0.514-0.785 0.102-0.324 0.101-0.709-0.003-1.156v0c-0.104-0.447-0.273-0.793-0.508-1.038-0.228-0.247-0.49-0.405-0.785-0.473-0.297-0.074-0.598-0.076-0.902-0.005v0c-0.304 0.071-0.573 0.205-0.807 0.403-0.229 0.19-0.39 0.449-0.484 0.778-0.096 0.322-0.092 0.704 0.01 1.144v0c0.105 0.453 0.268 0.801 0.488 1.043 0.228 0.247 0.487 0.409 0.778 0.484 0.291 0.076 0.588 0.078 0.892 0.008z" fill="#ffffff" data-fill-palette-color="accent"></path><path d="M66.921 81.601l0.322 0.618-0.862 4.821 2.679-1.395 0.345 0.664-3.572 1.859-0.318-0.61 0.858-4.829-2.618 1.362-0.345-0.663z" fill="#ffffff" data-fill-palette-color="accent"></path><path d="M78.164 79.525l-0.554 0.488-0.677-0.679c0.101 0.345 0.103 0.68 0.007 1.004-0.101 0.328-0.318 0.639-0.652 0.933v0c-0.289 0.255-0.576 0.427-0.859 0.518-0.279 0.086-0.545 0.095-0.8 0.027-0.259-0.073-0.49-0.224-0.692-0.453v0c-0.294-0.334-0.411-0.718-0.351-1.152 0.056-0.439 0.301-0.89 0.735-1.352v0l1.116-1.223-0.284-0.321c-0.198-0.224-0.438-0.331-0.721-0.321-0.283 0.01-0.567 0.141-0.851 0.391v0c-0.274 0.242-0.449 0.506-0.524 0.793-0.07 0.292-0.035 0.589 0.107 0.89v0l-0.718 0.287c-0.198-0.446-0.243-0.893-0.134-1.344 0.113-0.445 0.374-0.848 0.783-1.207v0c0.474-0.417 0.95-0.62 1.43-0.609 0.475 0.006 0.895 0.217 1.259 0.63v0zM75.997 78.272l-0.112-0.127-1.117 1.236c-0.234 0.268-0.37 0.521-0.408 0.759-0.038 0.228 0.027 0.437 0.194 0.626v0c0.163 0.184 0.362 0.275 0.597 0.271 0.231-0.009 0.474-0.125 0.729-0.349v0c0.294-0.259 0.481-0.53 0.559-0.813 0.088-0.282 0.087-0.56-0.003-0.833-0.086-0.279-0.232-0.535-0.439-0.77z" fill="#ffffff" data-fill-palette-color="accent"></path><path d="M82.828 73.989l-4.402-2.993 0.414-0.61 0.649 0.393c-0.117-0.289-0.16-0.587-0.127-0.894 0.036-0.313 0.157-0.621 0.362-0.923v0c0.228-0.335 0.499-0.581 0.814-0.736 0.315-0.156 0.664-0.208 1.047-0.157 0.379 0.057 0.783 0.231 1.212 0.523v0l2.531 1.72-0.449 0.66-2.456-1.67c-0.456-0.31-0.87-0.447-1.241-0.41-0.367 0.032-0.678 0.234-0.932 0.608v0c-0.258 0.379-0.336 0.76-0.234 1.143 0.107 0.386 0.408 0.747 0.903 1.084v0l2.357 1.603z" fill="#ffffff" data-fill-palette-color="accent"></path><path d="M88.042 61.66l-3.53-2.965 0.271-0.781 6.039 5.312-0.251 0.725-1.775-1.576-5.669 0.314 0.287-0.829z" fill="#ffffff" data-fill-palette-color="accent"></path><path d="M0.994 47.313c0-1.571 1.274-2.845 2.844-2.844 1.571 0 2.845 1.274 2.845 2.844 0 1.571-1.274 2.845-2.845 2.845-1.571 0-2.845-1.274-2.844-2.845z" fill="#ffffff" data-fill-palette-color="accent"></path><path d="M85.975 47.313c0-1.571 1.274-2.845 2.844-2.844 1.571 0 2.845 1.274 2.845 2.844 0 1.571-1.274 2.845-2.845 2.845-1.571 0-2.845-1.274-2.844-2.845z" fill="#ffffff" data-fill-palette-color="accent"></path></g><g id="text-1"></g></svg></g></svg></g></svg></g></svg></g></svg></g><defs></defs></svg><rect width="320" height="360" fill="none" stroke="none" visibility="hidden"></rect></g></svg></g></svg>